<svg width="13" height="19" viewBox="0 0 13 19" fill="none" xmlns="http://www.w3.org/2000/svg">
<path d="M5.95455 18.8182V0.636363H7.11932V18.8182H5.95455ZM8.75994 6.81534C8.71259 6.29451 8.50189 5.88968 8.12784 5.60085C7.75852 5.30729 7.23059 5.16051 6.54403 5.16051C6.08949 5.16051 5.7107 5.2197 5.40767 5.33807C5.10464 5.45644 4.87737 5.61979 4.72585 5.82812C4.57434 6.03172 4.49621 6.2661 4.49148 6.53125C4.48201 6.74905 4.52462 6.94081 4.61932 7.10653C4.71875 7.27225 4.8608 7.41903 5.04545 7.54688C5.23485 7.66998 5.46212 7.77888 5.72727 7.87358C5.99242 7.96828 6.29072 8.05114 6.62216 8.12216L7.87216 8.40625C8.59186 8.5625 9.22633 8.77083 9.77557 9.03125C10.3295 9.29167 10.7936 9.6018 11.1676 9.96165C11.5464 10.3215 11.8329 10.7358 12.027 11.2045C12.2211 11.6733 12.3205 12.1989 12.3253 12.7812C12.3205 13.6998 12.0885 14.4882 11.6293 15.1463C11.17 15.8045 10.5095 16.3087 9.64773 16.6591C8.79072 17.0095 7.75616 17.1847 6.54403 17.1847C5.32718 17.1847 4.26657 17.0024 3.36222 16.6378C2.45786 16.2732 1.75473 15.7192 1.25284 14.9759C0.750947 14.2325 0.492898 13.2926 0.478693 12.1562H3.84517C3.87358 12.625 3.99905 13.0156 4.22159 13.3281C4.44413 13.6406 4.74953 13.8774 5.13778 14.0384C5.53078 14.1993 5.98532 14.2798 6.50142 14.2798C6.97491 14.2798 7.37737 14.2159 7.70881 14.0881C8.04498 13.9602 8.30303 13.7827 8.48295 13.5554C8.66288 13.3281 8.75521 13.0677 8.75994 12.7741C8.75521 12.4995 8.66998 12.2652 8.50426 12.071C8.33854 11.8722 8.08286 11.7017 7.73722 11.5597C7.39631 11.4129 6.9607 11.2779 6.4304 11.1548L4.91051 10.7997C3.65104 10.5109 2.65909 10.0445 1.93466 9.40057C1.21023 8.75189 0.850379 7.87595 0.855114 6.77273C0.850379 5.87311 1.09186 5.08475 1.57955 4.40767C2.06723 3.73059 2.74195 3.20265 3.60369 2.82386C4.46544 2.44508 5.44792 2.25568 6.55114 2.25568C7.67803 2.25568 8.65578 2.44744 9.48438 2.83097C10.3177 3.20975 10.964 3.74242 11.4233 4.42898C11.8826 5.11553 12.117 5.91098 12.1264 6.81534H8.75994Z" fill="#1E3A8A"/>
</svg>
